<svg width="80" height="114" viewBox="0 0 80 114" fill="none" xmlns="http://www.w3.org/2000/svg">
<circle opacity="0.2" cx="39.875" cy="93.6622" r="20.3135" fill="#00BC7D"/>
<circle cx="39.8755" cy="93.6616" r="6.3042" fill="#00BC7D"/>
<g filter="url(#filter0_d_604_18640)">
<path d="M39.964 45.4673C37.3456 45.5243 34.8119 44.5431 32.9203 42.7396C31.0286 40.9361 29.934 38.458 29.8772 35.8504C29.8204 33.2428 30.8061 30.7193 32.6174 28.8352C34.4287 26.951 36.9173 25.8604 39.5357 25.8034C42.1541 25.7464 44.6878 26.7275 46.5795 28.5311C48.4711 30.3346 49.5657 32.8127 49.6225 35.4203C49.6506 36.7115 49.4231 37.9955 48.953 39.1992C48.4828 40.4029 47.7792 41.5026 46.8823 42.4355C45.9854 43.3685 44.9129 44.1164 43.7258 44.6366C42.5388 45.1568 41.2605 45.439 39.964 45.4673ZM39.1503 8.10592C31.8188 8.2656 24.8507 11.3192 19.779 16.5948C14.7073 21.8705 11.9474 28.9362 12.1064 36.2374C12.5561 56.8845 40.8634 86.7614 40.8634 86.7614C40.8634 86.7614 67.843 55.6803 67.3933 35.0333C67.2343 27.732 64.1693 20.7932 58.8727 15.7434C53.5761 10.6935 46.4817 7.94623 39.1503 8.10592Z" fill="#00B5B5" fill-opacity="0.72" shape-rendering="crispEdges"/>
<path d="M40.8638 86.7611L39.7747 87.7929L40.9125 88.994L41.9959 87.7445L40.8638 86.7611ZM40.8638 86.7611L41.9968 87.7445L41.9978 87.7425C41.9988 87.7413 42.0007 87.7396 42.0025 87.7375C42.0062 87.7332 42.0119 87.7265 42.0187 87.7186C42.0326 87.7026 42.0526 87.6793 42.0788 87.6489C42.1316 87.5874 42.2096 87.4967 42.3102 87.3782C42.5115 87.1411 42.805 86.7925 43.1775 86.3424C43.9226 85.4423 44.9836 84.1352 46.2548 82.504C48.796 79.2434 52.1822 74.6761 55.5568 69.4536C58.9286 64.2356 62.3075 58.3359 64.8188 52.412C67.3217 46.5079 69.0118 40.4672 68.8928 35.0008C68.7251 27.2998 65.4923 19.9819 59.9076 14.6574C54.3233 9.33339 46.845 6.43808 39.118 6.60626C31.3909 6.77457 24.045 9.99273 18.6977 15.555C13.3502 21.1176 10.4391 28.5693 10.6068 36.2703C10.7259 41.7367 12.6774 47.698 15.435 53.4876C18.2019 59.2966 21.8345 65.0435 25.4302 70.1098C29.029 75.1803 32.6109 79.5959 35.2916 82.7428C36.6327 84.3171 37.7496 85.5768 38.5331 86.4436C38.9248 86.877 39.2333 87.2125 39.4447 87.4406C39.5504 87.5547 39.6323 87.6418 39.6877 87.701C39.7154 87.7305 39.7372 87.7525 39.7517 87.768C39.7589 87.7756 39.7638 87.7821 39.7677 87.7862C39.7697 87.7882 39.7716 87.7898 39.7727 87.7909L39.7737 87.7929L40.8638 86.7611ZM39.5688 27.3035C37.3462 27.3519 35.2343 28.2769 33.6986 29.8743C32.1631 31.4716 31.3292 33.61 31.3773 35.8179C31.4254 38.0256 32.3517 40.1249 33.9552 41.6538C35.559 43.1829 37.7091 44.0159 39.9318 43.9675C41.032 43.9435 42.1171 43.7044 43.1242 43.2631C44.1313 42.8217 45.0407 42.1866 45.801 41.3957C46.5612 40.6049 47.1579 39.6733 47.5561 38.6538C47.9544 37.6342 48.1471 36.5464 48.1233 35.4531C48.0752 33.2453 47.148 31.1452 45.5444 29.6163C43.9407 28.0874 41.7912 27.2552 39.5688 27.3035Z" stroke="white" stroke-width="3" shape-rendering="crispEdges"/>
</g>
<path d="M17.8105 37.4498C17.8105 25.1671 27.7676 15.21 40.0503 15.21V15.21C52.3331 15.21 62.2901 25.1671 62.2901 37.4498V37.4498C62.2901 49.7325 52.3331 59.6896 40.0503 59.6896V59.6896C27.7676 59.6896 17.8105 49.7325 17.8105 37.4498V37.4498Z" fill="white"/>
<path d="M37.7365 29.6607V48.1836C37.7365 48.3617 37.6422 48.5265 37.4888 48.6162L29.2573 53.4349C28.9246 53.6299 28.5068 53.389 28.5068 53.0023V34.4795C28.5068 34.3014 28.6011 34.1365 28.7543 34.0469L36.986 29.2281C37.3187 29.0334 37.7365 29.2742 37.7365 29.6607Z" fill="#00A6A6"/>
<path d="M33.3036 25.3951L42.0105 20.5663C42.1662 20.48 42.3559 20.4835 42.5086 20.5753L52.9158 26.8418C53.0663 26.9322 53.1583 27.0954 53.1583 27.2713V39.0512C53.1583 39.2286 53.0646 39.3928 52.9124 39.4827L44.5511 44.4253C44.2187 44.6219 43.7994 44.3817 43.7988 43.9947L43.7794 32.469C43.7792 32.2883 43.6819 32.1217 43.5248 32.0332L33.3005 26.2701C32.9596 26.078 32.9614 25.5848 33.3036 25.3951Z" fill="#1CE6DC"/>
<defs>
<filter id="filter0_d_604_18640" x="-0.000391006" y="-0.000391006" width="79.4988" height="104.326" filterUnits="userSpaceOnUse" color-interpolation-filters="sRGB">
<feFlood flood-opacity="0" result="BackgroundImageFix"/>
<feColorMatrix in="SourceAlpha" type="matrix" values="0 0 0 0 0 0 0 0 0 0 0 0 0 0 0 0 0 0 127 0" result="hardAlpha"/>
<feOffset dy="4"/>
<feGaussianBlur stdDeviation="4.55"/>
<feComposite in2="hardAlpha" operator="out"/>
<feColorMatrix type="matrix" values="0 0 0 0 0 0 0 0 0 0 0 0 0 0 0 0 0 0 0.25 0"/>
<feBlend mode="normal" in2="BackgroundImageFix" result="effect1_dropShadow_604_18640"/>
<feBlend mode="normal" in="SourceGraphic" in2="effect1_dropShadow_604_18640" result="shape"/>
</filter>
</defs>
</svg>
